<svg xmlns="http://www.w3.org/2000/svg" viewBox="0 0 1280 640" role="img" aria-label="mcp-maigret: OSINT username search for AI agents">
  <defs>
    <linearGradient id="g" x1="0" y1="0" x2="1" y2="1">
      <stop offset="0" stop-color="#4f46e5"/>
      <stop offset="1" stop-color="#0891b2"/>
    </linearGradient>
  </defs>
  <rect width="1280" height="640" fill="#0b1220"/>
  <g transform="translate(160 150) scale(2.2)">
    <rect width="128" height="128" rx="28" fill="url(#g)"/>
    <circle cx="54" cy="54" r="29" fill="none" stroke="#fff" stroke-width="8"/>
    <path d="M76 76 100 100" fill="none" stroke="#fff" stroke-width="11" stroke-linecap="round"/>
    <circle cx="54" cy="46" r="8" fill="#fff"/>
    <path d="M38 70c0-9 7-15 16-15s16 6 16 15z" fill="#fff"/>
  </g>
  <g font-family="Helvetica, Arial, sans-serif">
    <text x="480" y="270" font-size="92" font-weight="800" fill="#f8fafc">mcp-maigret</text>
    <text x="480" y="340" font-size="38" fill="#94a3b8">OSINT username search</text>
    <text x="480" y="390" font-size="38" fill="#94a3b8">for AI agents</text>
    <rect x="480" y="440" width="150" height="52" rx="26" fill="#1e293b"/><circle cx="508" cy="466" r="9" fill="#818cf8"/><text x="528" y="476" font-size="26" fill="#f8fafc" font-weight="600">Search</text>
    <rect x="644" y="440" width="132" height="52" rx="26" fill="#1e293b"/><circle cx="672" cy="466" r="9" fill="#22d3ee"/><text x="692" y="476" font-size="26" fill="#f8fafc" font-weight="600">Parse</text>
    <rect x="790" y="440" width="148" height="52" rx="26" fill="#1e293b"/><circle cx="818" cy="466" r="9" fill="#34d399"/><text x="838" y="476" font-size="26" fill="#f8fafc" font-weight="600">Report</text>
  </g>
</svg>
